<?xml version="1.0" standalone="no"?>
<!DOCTYPE svg PUBLIC "-//W3C//DTD SVG 20010904//EN"
 "http://www.w3.org/TR/2001/REC-SVG-20010904/DTD/svg10.dtd">
<svg version="1.0" xmlns="http://www.w3.org/2000/svg"
 width="700.000000pt" height="700.000000pt" viewBox="0 0 700.000000 700.000000"
 preserveAspectRatio="xMidYMid meet">
<metadata>
Created by potrace 1.14, written by Peter Selinger 2001-2017
</metadata>
<g transform="translate(0.000000,700.000000) scale(0.100000,-0.100000)"
fill="#000000" stroke="none">
<path d="M1939 5246 c-2 -2 -26 -7 -54 -10 -489 -61 -1005 -370 -1390 -831
-119 -142 -281 -404 -340 -546 -83 -204 -118 -330 -145 -524 -12 -85 -11
-1591 1 -1636 12 -46 42 -84 82 -107 30 -16 231 -17 3470 -18 l3437 -1 0 1839
0 1838 -2529 0 c-1390 0 -2530 -2 -2532 -4z"/>
</g>
</svg>
